<?xml version="1.0" encoding="UTF-8"?>
<svg width="12px" height="15px" viewBox="0 0 12 15" version="1.1" xmlns="http://www.w3.org/2000/svg" xmlns:xlink="http://www.w3.org/1999/xlink">
    <!-- Generator: Sketch 52.4 (67378) - http://www.bohemiancoding.com/sketch -->
    <title>Icons/32/user-active-32</title>
    <desc>Created with Sketch.</desc>
    <g id="Page-1" stroke="none" stroke-width="1" fill="none" fill-rule="evenodd">
        <g id="Users" transform="translate(-50.000000, -672.000000)" fill="#1DB954">
            <path d="M62,686.005789 L62,684.929139 C62,683.590228 61.2794783,682.422265 60.212,681.804837 L57.9424348,680.477606 C57.5594783,680.253569 57.4707826,679.73064 57.7572174,679.388746 L58.6827826,678.284489 C59.2107826,677.656974 59.5295652,676.841524 59.5295652,675.950686 L59.5295652,675.591272 C59.5295652,673.528755 57.8208696,671.87237 55.7652174,672.007748 C53.8895652,672.131446 52.4709565,673.801633 52.4709565,675.714439 L52.4709565,675.950686 C52.4709565,676.841524 52.7897391,677.656974 53.3177391,678.284489 L54.2433043,679.388746 C54.5297391,679.73064 54.4410435,680.253569 54.058087,680.477606 L51.7885217,681.804837 C50.72,682.421734 50,683.589697 50,684.929139 L50,686.005789 L62,686.005789 Z" id="Icons/32/user-active-32"></path>
        </g>
    </g>
</svg>