<?xml version="1.0" encoding="UTF-8"?>
<svg width="25px" height="27px" viewBox="0 0 25 27" version="1.1" xmlns="http://www.w3.org/2000/svg" xmlns:xlink="http://www.w3.org/1999/xlink">
    <!-- Generator: Sketch 52.4 (67378) - http://www.bohemiancoding.com/sketch -->
    <title>Icons/32/share-32</title>
    <desc>Created with Sketch.</desc>
    <g id="Page-1" stroke="none" stroke-width="1" fill="none" fill-rule="evenodd">
        <g id="Themes" transform="translate(-46.000000, -36.000000)" fill="#FFFFFF">
            <path d="M67.001,54.3178246 C65.552,54.3178246 64.295,55.1084561 63.593,56.2827018 L53.776,50.5152632 C53.911,50.1082456 54,49.6808772 54,49.2290877 C54,48.7589825 53.906,48.3153333 53.762,47.8950877 L63.57,42.1327368 C64.266,43.3293684 65.535,44.1403509 67.001,44.1403509 C69.21,44.1403509 71.001,42.3189474 71.001,40.0701754 C71.001,37.8224211 69.21,36 67.001,36 C64.792,36 63.001,37.8224211 63.001,40.0701754 C63.001,40.4619298 63.072,40.8323158 63.174,41.1904912 L53.328,46.9742105 C52.612,45.8803509 51.389,45.1589123 50,45.1589123 C47.791,45.1589123 46,46.9813333 46,49.2290877 C46,51.4778596 47.791,53.2992632 50,53.2992632 C51.407,53.2992632 52.638,52.5574737 53.351,51.4402105 L63.188,57.2198596 C63.078,57.5922807 63,57.9789474 63,58.388 C63,60.6357544 64.791,62.4581754 67,62.4581754 C69.209,62.4581754 71,60.6357544 71,58.388 C71.001,56.1402456 69.21,54.3178246 67.001,54.3178246 Z M67.001,37.0185614 C68.655,37.0185614 70.001,38.3881754 70.001,40.071193 C70.001,41.7542105 68.655,43.1238246 67.001,43.1238246 C65.347,43.1238246 64.001,41.7542105 64.001,40.071193 C64.001,38.3881754 65.347,37.0185614 67.001,37.0185614 Z M50,52.2817193 C48.346,52.2817193 47,50.9121053 47,49.2290877 C47,47.5460702 48.346,46.1764561 50,46.1764561 C51.654,46.1764561 53,47.5460702 53,49.2290877 C53,50.9121053 51.654,52.2817193 50,52.2817193 Z M67.001,61.4406316 C65.347,61.4406316 64.001,60.0710175 64.001,58.388 C64.001,56.7049825 65.347,55.3353684 67.001,55.3353684 C68.655,55.3353684 70.001,56.7049825 70.001,58.388 C70.001,60.0710175 68.656,61.4406316 67.001,61.4406316 Z" id="Icons/32/share-32"></path>
        </g>
    </g>
</svg>